<svg width="77" height="77" viewBox="0 0 77 77" fill="none" xmlns="http://www.w3.org/2000/svg">
<path d="M46.9219 53.1105H41.3499V34.8906C41.3499 34.5598 41.0792 34.2891 40.7483 34.2891H36.2366C35.9058 34.2891 35.6351 34.5598 35.6351 34.8906V53.1105H30.0781C29.5743 53.1105 29.2961 53.6895 29.6044 54.0805L38.0263 64.7357C38.0825 64.8076 38.1544 64.8657 38.2365 64.9057C38.3186 64.9457 38.4087 64.9665 38.5 64.9665C38.5913 64.9665 38.6814 64.9457 38.7635 64.9057C38.8456 64.8657 38.9175 64.8076 38.9737 64.7357L47.3956 54.0805C47.7039 53.6895 47.4257 53.1105 46.9219 53.1105V53.1105Z" fill="#ED4C5C"/>
<path d="M61.0135 27.5741C57.5695 18.4905 48.7942 12.0312 38.515 12.0312C28.2358 12.0312 19.4605 18.483 16.0166 27.5666C9.57236 29.2585 4.8125 35.1312 4.8125 42.1094C4.8125 50.4185 11.5425 57.1484 19.844 57.1484H22.8594C23.1902 57.1484 23.4609 56.8777 23.4609 56.5469V52.0352C23.4609 51.7043 23.1902 51.4336 22.8594 51.4336H19.844C17.31 51.4336 14.9263 50.426 13.1517 48.5987C11.3846 46.779 10.4446 44.3276 10.5273 41.786C10.595 39.8009 11.2718 37.936 12.4975 36.3645C13.7532 34.7628 15.5128 33.5973 17.4679 33.0784L20.3178 32.334L21.363 29.5818C22.0097 27.8674 22.912 26.2657 24.0475 24.8145C25.1684 23.376 26.4962 22.1116 27.9877 21.0622C31.0782 18.8891 34.7177 17.7386 38.515 17.7386C42.3124 17.7386 45.9519 18.8891 49.0424 21.0622C50.5388 22.1149 51.8622 23.3782 52.9826 24.8145C54.1181 26.2657 55.0204 27.8749 55.6671 29.5818L56.7048 32.3265L59.5472 33.0784C63.6228 34.1763 66.4727 37.8834 66.4727 42.1094C66.4727 44.5983 65.5026 46.9444 63.7431 48.704C62.8802 49.572 61.8536 50.2601 60.723 50.7287C59.5923 51.1972 58.3799 51.4368 57.156 51.4336H54.1406C53.8098 51.4336 53.5391 51.7043 53.5391 52.0352V56.5469C53.5391 56.8777 53.8098 57.1484 54.1406 57.1484H57.156C65.4575 57.1484 72.1875 50.4185 72.1875 42.1094C72.1875 35.1388 67.4427 29.2735 61.0135 27.5741Z" fill="#ED4C5C"/>
</svg>
