<svg width="77" height="77" viewBox="0 0 77 77" fill="none" xmlns="http://www.w3.org/2000/svg">
<path d="M59.0258 30.9597H57.7512V24.8182C57.7501 24.7791 57.7464 24.7402 57.7399 24.7017C57.7417 24.455 57.6535 24.2161 57.4918 24.0296L47.2608 12.3567L47.2533 12.3492C47.192 12.2831 47.1225 12.2251 47.0465 12.1765L46.9788 12.1352C46.9138 12.0991 46.8451 12.0701 46.7739 12.0488L46.7175 12.03C46.6394 12.0106 46.5592 12.0005 46.4787 12H21.33C20.1813 12 19.2488 12.9332 19.2488 14.0785V30.9578H17.9742C16.331 30.9578 15 32.2871 15 33.9281V49.3768C15 51.0159 16.3329 52.3471 17.9742 52.3471H19.2488V62.9215C19.2488 64.0669 20.1813 65 21.33 65H55.67C56.8168 65 57.7512 64.0669 57.7512 62.9215V52.3471H59.0258C60.6671 52.3471 62 51.0177 62 49.3768V33.9281C62 32.289 60.669 30.9597 59.0258 30.9597ZM21.33 14.0785H45.4372V24.713C45.4372 25.2876 45.9034 25.7513 46.4787 25.7513H55.6719V30.9578H21.33V14.0785V14.0785ZM36.9001 42.5574C34.3734 41.6562 32.7058 40.2593 32.7058 38.0531C32.7058 35.464 34.8942 33.5057 38.4568 33.5057C40.1939 33.5057 41.4328 33.8436 42.3352 34.2698L41.5682 37.0167C40.5851 36.5385 39.5051 36.2925 38.4116 36.2976C36.9227 36.2976 36.2008 36.9942 36.2008 37.7602C36.2008 38.7291 37.0336 39.1553 39.0189 39.8988C41.7035 40.8901 42.9424 42.2852 42.9424 44.4256C42.9424 46.9716 41.0042 49.1327 36.8324 49.1327C35.0953 49.1327 33.3826 48.6595 32.5254 48.1864L33.2247 45.3719C34.4053 45.9739 35.7082 46.2976 37.0336 46.3182C38.6128 46.3182 39.4475 45.6629 39.4475 44.6734C39.4475 43.7272 38.7275 43.1883 36.9001 42.5574V42.5574ZM18.9912 41.521C18.9912 36.3633 22.6892 33.5038 27.2877 33.5038C29.0699 33.5038 30.4216 33.8624 31.0308 34.1572L30.3088 36.8815C29.3956 36.4986 28.4134 36.3069 27.423 36.3183C24.7177 36.3183 22.599 37.9611 22.599 41.3389C22.599 44.3561 24.4019 46.2713 27.4456 46.2713C28.5059 46.2713 29.6339 46.0704 30.3314 45.7756L30.8296 48.4774C30.2205 48.7684 28.7766 49.1308 26.9512 49.1308C21.6966 49.1327 18.9912 45.845 18.9912 41.521V41.521ZM55.67 62.362H21.33V52.3489H55.67V62.362V62.362ZM52.8914 48.9074H48.8776L44.0084 33.7291H47.774L49.6221 40.1485C50.1391 41.9716 50.6128 43.684 50.9738 45.5747H51.0415C51.4259 43.7704 51.8844 41.9827 52.4158 40.2161L54.3559 33.731H58.0069L52.8914 48.9074V48.9074Z" fill="#ED4C5C"/>
</svg>
