<svg width="77" height="77" viewBox="0 0 77 77" fill="none" xmlns="http://www.w3.org/2000/svg">
<path d="M25.8555 39.2365C25.8555 37.6373 24.7636 36.6819 22.8383 36.6819C22.0524 36.6819 21.5209 36.7598 21.2418 36.8355V41.9721C21.5726 42.0479 21.978 42.0752 22.5343 42.0752C24.5878 42.0752 25.8555 41.0168 25.8555 39.2365Z" fill="#ED4C5C"/>
<path d="M37.7796 36.7324C36.9172 36.7324 36.3588 36.8102 36.028 36.8881V48.2681C36.3588 48.346 36.8903 48.346 37.3722 48.346C40.8712 48.3713 43.1543 46.41 43.1543 42.2562C43.1812 38.6431 41.1008 36.7324 37.7796 36.7324V36.7324Z" fill="#ED4C5C"/>
<path d="M60.6247 30.0471H59.2226V23.1639C59.2215 23.1202 59.2173 23.0766 59.2102 23.0335C59.2125 22.7566 59.1163 22.4883 58.9393 22.278L47.6832 9.19771L47.6749 9.1893C47.532 9.03146 47.3498 8.91585 47.1476 8.85471L47.0855 8.83367C46.9996 8.81187 46.9115 8.80057 46.8229 8.8H19.1593C17.8957 8.8 16.87 9.84584 16.87 11.1295V30.0471H15.4679C13.6605 30.0471 12.1963 31.5369 12.1963 33.3761V50.6902C12.1963 52.5273 13.6625 54.0192 15.4679 54.0192H16.87V65.8727C16.87 67.1563 17.8957 68.2022 19.1593 68.2022H56.9334C58.1948 68.2022 59.2226 67.1563 59.2226 65.8727V54.0192H60.6247C62.4322 54.0192 63.8963 52.5273 63.8963 50.6902V33.3761C63.8963 31.5369 62.4301 30.0471 60.6247 30.0471V30.0471ZM19.1593 11.1295H45.6772V23.0482C45.6772 23.6921 46.1901 24.2119 46.8229 24.2119H56.9354V30.0471H19.1593V11.1295ZM47.2634 42.1257C47.2634 45.4547 46.0722 47.7526 44.4199 49.1709C42.6207 50.6923 39.8827 51.4162 36.5346 51.4162C34.5307 51.4162 33.1121 51.2857 32.1463 51.1595V34.0747C33.567 33.8432 35.4179 33.7149 37.3721 33.7149C40.6168 33.7149 42.7221 34.3083 44.3703 35.5729C46.1467 36.9134 47.2634 39.0556 47.2634 42.1257V42.1257ZM17.4097 51.2373V34.0747C18.6009 33.8685 20.276 33.7149 22.6335 33.7149C25.0179 33.7149 26.7178 34.1799 27.8573 35.1079C28.9471 35.9854 29.6813 37.431 29.6813 39.1334C29.6813 40.8379 29.125 42.2814 28.1096 43.262C26.7902 44.5267 24.838 45.0949 22.5549 45.0949C22.0483 45.0949 21.5912 45.0696 21.2376 45.017V51.2373H17.4097ZM56.9334 65.2414H19.1593V54.0192H56.9334V65.2414ZM60.2504 37.0691H53.6804V41.0441H59.8182V44.2447H53.6804V51.2373H49.8029V33.8432H60.2504V37.0691Z" fill="#ED4C5C"/>
</svg>
