<svg width="77" height="77" viewBox="0 0 77 77" fill="none" xmlns="http://www.w3.org/2000/svg">
<path fill-rule="evenodd" clip-rule="evenodd" d="M39.6354 4.06807L65.1868 12.7757C65.8109 12.9937 66.3223 13.7081 66.3072 14.3698V50.644C66.3072 51.3133 65.8786 52.1855 65.3598 52.5916L39.4399 72.7891C39.1843 72.9921 38.8384 73.0974 38.4925 73.0974C38.1466 73.0974 37.8082 72.9921 37.545 72.7891L11.6252 52.5916C11.1063 52.178 10.6777 51.3058 10.6777 50.644V14.3698C10.6777 13.7081 11.1891 12.9862 11.8132 12.7757L37.3646 4.06807C37.6729 3.96279 38.0864 3.91016 38.5 3.91016C38.9136 3.91016 39.3271 3.96279 39.6354 4.06807ZM38.5 66.6606L60.9082 49.2003V17.0468L38.5 9.40693L16.0918 17.0468V49.2003L38.5 66.6606Z" fill="#ED4C5C"/>
<path fill-rule="evenodd" clip-rule="evenodd" d="M30.2962 39.7633L24.4686 45.5909C24.3566 45.704 24.2938 45.8567 24.2938 46.0158C24.2938 46.1749 24.3566 46.3276 24.4686 46.4406L27.0252 48.9973C27.2583 49.2304 27.6418 49.2304 27.8749 48.9973L33.7025 43.1696C37.8909 45.809 43.4854 45.3052 47.1324 41.6582C51.3659 37.4247 51.3659 30.5669 47.1324 26.3334C42.8989 22.0999 36.0411 22.0999 31.8076 26.3334C28.1606 29.9804 27.6568 35.5824 30.2962 39.7633ZM43.7261 29.7397C41.38 27.3861 37.5676 27.3861 35.214 29.7397C32.8603 32.0934 32.8679 35.8982 35.214 38.2519C37.5601 40.6055 41.3725 40.6055 43.7261 38.2519C46.0797 35.9058 46.0797 32.0934 43.7261 29.7397Z" fill="#ED4C5C"/>
</svg>
